<svg width="16" height="64" xmlns="http://www.w3.org/2000/svg"><style>#filled:not(:target){display:none}#filled:target + #default{display:none}</style><defs><symbol id="icon"><path d="M4.6465 14.8536a.5.5 0 0 1 0-.7072L10.7929 8 4.6465 1.8536a.5.5 0 1 1 .707-.7071L12.2072 8l-6.8535 6.8536a.5.5 0 0 1-.7072 0"/></symbol><symbol id="icon-filled"><path d="M4.4697 15.0303a.75.75 0 0 1 0-1.0606L10.4393 8 4.4697 2.0303A.75.75 0 0 1 5.5303.9697L12.5607 8l-7.0304 7.0303a.75.75 0 0 1-1.0606 0"/></symbol></defs><g id="filled"><use x="0" y="0" href="#icon-filled" fill="#000000f5"/><use x="0" y="16" href="#icon-filled" fill="#fff"/><use x="0" y="32" href="#icon-filled" fill="#000000f5" transform="scale(-1, 1)" transform-origin="8 0"/><use x="0" y="48" href="#icon-filled" fill="#fff" transform="scale(-1, 1)" transform-origin="8 0"/></g><g id="default"><use x="0" y="0" href="#icon" fill="#000000f5"/><use x="0" y="16" href="#icon" fill="#fff"/><use x="0" y="32" href="#icon" fill="#000000f5" transform="scale(-1, 1)" transform-origin="8 0"/><use x="0" y="48" href="#icon" fill="#fff" transform="scale(-1, 1)" transform-origin="8 0"/></g></svg>