<svg width="16" height="64" xmlns="http://www.w3.org/2000/svg"><style>#filled:not(:target){display:none}#filled:target + #default{display:none}</style><defs><symbol id="icon"><path d="M11.3536 1.1465a.5.5 0 0 1 0 .707L5.2071 8l6.1465 6.1464a.5.5 0 0 1 0 .7072.5.5 0 0 1-.7072 0L3.7929 8l6.8535-6.8535a.5.5 0 0 1 .7072 0"/></symbol><symbol id="icon-filled"><path d="M11.5303.9697a.75.75 0 0 1 0 1.0606L5.5607 8l5.9696 5.9697a.75.75 0 0 1 0 1.0606.75.75 0 0 1-1.0606 0L3.4393 8 10.4697.9697a.75.75 0 0 1 1.0606 0"/></symbol></defs><g id="filled"><use x="0" y="0" href="#icon-filled" fill="#000000f5"/><use x="0" y="16" href="#icon-filled" fill="#fff"/><use x="0" y="32" href="#icon-filled" fill="#000000f5" transform="scale(-1, 1)" transform-origin="8 0"/><use x="0" y="48" href="#icon-filled" fill="#fff" transform="scale(-1, 1)" transform-origin="8 0"/></g><g id="default"><use x="0" y="0" href="#icon" fill="#000000f5"/><use x="0" y="16" href="#icon" fill="#fff"/><use x="0" y="32" href="#icon" fill="#000000f5" transform="scale(-1, 1)" transform-origin="8 0"/><use x="0" y="48" href="#icon" fill="#fff" transform="scale(-1, 1)" transform-origin="8 0"/></g></svg>