<svg width="24" height="96" xmlns="http://www.w3.org/2000/svg"><style>#filled:not(:target){display:none}#filled:target + #default{display:none}</style><defs><symbol id="icon"><path fill-rule="evenodd" d="M16 6c0 2.2091-1.7909 4-4 4S8 8.2091 8 6s1.7909-4 4-4 4 1.7909 4 4m1 0c0 2.7614-2.2386 5-5 5S7 8.7614 7 6s2.2386-5 5-5 5 2.2386 5 5m-5 8c1.6667 0 3.2162-.5106 4.498-1.3834l2.9841 1.642c.3194.1758.5179.5115.5179.8762v4.8653c0 1.1046-.8954 2-2 2H6c-1.1046 0-2-.8954-2-2v-4.8653a1 1 0 0 1 .5179-.8762l2.9841-1.642C8.7838 13.4894 10.3333 14 12 14m0-1c1.6749 0 3.2123-.5882 4.4171-1.5693l3.5471 1.9518A2 2 0 0 1 21 15.1348v4.8653c0 1.6569-1.3431 3-3 3H6c-1.6569 0-3-1.3431-3-3v-4.8653a2 2 0 0 1 1.0358-1.7523l3.547-1.9518C8.7878 12.4118 10.3252 13 12 13" clip-rule="evenodd"/></symbol><symbol id="icon-filled"><path fill-rule="evenodd" d="M17 6c0 2.7614-2.2386 5-5 5S7 8.7614 7 6s2.2386-5 5-5 5 2.2386 5 5m-5 7c1.6749 0 3.2123-.5882 4.4171-1.5693l3.5471 1.9518A2 2 0 0 1 21 15.1348v4.8653c0 1.6569-1.3431 3-3 3H6c-1.6569 0-3-1.3431-3-3v-4.8653a2 2 0 0 1 1.0358-1.7523l3.547-1.9518C8.7878 12.4118 10.3252 13 12 13" clip-rule="evenodd"/></symbol></defs><g id="filled"><use x="0" y="0" href="#icon-filled" fill="#000000f5"/><use x="0" y="24" href="#icon-filled" fill="#fff"/><use x="0" y="48" href="#icon-filled" fill="#000000f5"/><use x="0" y="72" href="#icon-filled" fill="#fff"/></g><g id="default"><use x="0" y="0" href="#icon" fill="#000000f5"/><use x="0" y="24" href="#icon" fill="#fff"/><use x="0" y="48" href="#icon" fill="#000000f5"/><use x="0" y="72" href="#icon" fill="#fff"/></g></svg>